<svg width="0" height="0" class="hidden">
  <symbol xmlns="http://www.w3.org/2000/svg" fill="none" viewBox="0 0 24 24" id="slider-arrow-1">
    <path fill="#fff" d="M5 21h14c1.103 0 2-.897 2-2V5c0-1.103-.897-2-2-2H5c-1.103 0-2 .897-2 2v14c0 1.103.897 2 2 2ZM5 5h14l.001 14H5V5Z"></path>
    <path fill="#fff" d="M13.293 6.293 7.586 12l5.707 5.707 1.414-1.414L10.414 12l4.293-4.293-1.414-1.414Z"></path>
  </symbol>
  <symbol xmlns="http://www.w3.org/2000/svg" fill="none" viewBox="0 0 24 24" id="slider-arrow-2">
    <path fill="#fff" d="M5 21h14c1.103 0 2-.897 2-2V5c0-1.103-.897-2-2-2H5c-1.103 0-2 .897-2 2v14c0 1.103.897 2 2 2ZM5 5h14l.001 14H5V5Z"></path>
    <path fill="#fff" d="M9.293 7.707 13.586 12l-4.293 4.293 1.414 1.414L16.414 12l-5.707-5.707-1.414 1.414Z"></path>
  </symbol>
  <symbol xmlns="http://www.w3.org/2000/svg" fill="none" viewBox="0 0 20 20" id="star-empty">
    <path fill="#fff" d="M9.07 1.318c.345-.817 1.515-.817 1.86 0l2.028 4.819c.145.344.473.58.849.609l5.266.417c.892.07 1.254 1.17.574 1.746l-4.012 3.395a.987.987 0 0 0-.325.986l1.226 5.077c.208.86-.74 1.54-1.503 1.079l-4.508-2.72a1.017 1.017 0 0 0-1.05 0l-4.508 2.72c-.764.46-1.711-.22-1.503-1.08l1.225-5.076a.987.987 0 0 0-.324-.986L.353 8.91c-.68-.575-.318-1.675.574-1.746l5.266-.417c.376-.03.704-.265.849-.61l2.029-4.818Z"></path>
  </symbol>
  <symbol xmlns="http://www.w3.org/2000/svg" fill="none" viewBox="0 0 20 20" id="star-filled">
    <path fill="#764191" d="M9.071 1.318c.344-.817 1.514-.817 1.858 0l2.029 4.819c.145.344.473.58.849.609l5.266.417c.892.07 1.254 1.17.574 1.746l-4.012 3.395a.987.987 0 0 0-.324.986l1.226 5.077c.207.86-.74 1.54-1.504 1.079l-4.508-2.72a1.017 1.017 0 0 0-1.05 0l-4.508 2.72c-.764.46-1.71-.22-1.503-1.08L4.69 13.29a.987.987 0 0 0-.325-.986L.353 8.91c-.68-.575-.318-1.675.574-1.746l5.266-.417c.377-.03.704-.265.85-.61L9.07 1.319Z"></path>
  </symbol>
</svg>