<svg width="23" height="31" viewBox="0 0 23 31" fill="none" xmlns="http://www.w3.org/2000/svg">
    <path d="M15.8906 0.138302C16.3108 0.0900071 16.7974 0.183937 17.2021 0.307247C18.1178 0.58618 18.8621 1.18308 19.3037 2.03576C19.7625 2.9098 19.8504 3.93209 19.5478 4.8717C19.1635 6.03061 18.3389 6.61345 17.3096 7.14904L17.3213 10.5289C18.0568 10.7532 18.7726 11.0071 19.4404 11.3942C20.9754 12.284 22.0255 13.7846 22.4658 15.4918C22.9312 17.2822 22.6669 19.1851 21.7305 20.7809C20.8715 22.2273 19.5019 23.2955 17.8623 23.7047C15.7203 24.24 13.9035 23.6606 12.0625 22.566C11.2488 23.436 10.4448 24.3156 9.65135 25.2047C10.0061 26.0416 10.1239 26.92 9.88866 27.8092C9.65873 28.6785 9.04963 29.4235 8.27049 29.8639C7.39738 30.358 6.40251 30.4474 5.4453 30.1735C4.49532 29.9016 3.69671 29.3136 3.23241 28.4293C2.7754 27.5599 2.73689 26.5411 3.03319 25.6129C3.37023 24.5582 4.05646 23.9085 5.02147 23.4264C6.06038 23.02 6.91945 23.1538 7.93358 23.5192C8.77792 22.6306 9.57272 21.6968 10.4258 20.816C9.48831 18.9775 9.18444 17.4113 9.67186 15.3854C8.61058 14.8899 7.5873 14.3133 6.52537 13.817C5.95789 14.4077 5.26377 14.8128 4.4492 14.9498C3.47789 15.1132 2.45367 14.8482 1.65526 14.278C0.864075 13.7048 0.343597 12.8305 0.215804 11.8619C0.0847484 10.9228 0.332173 9.88825 0.933578 9.14709C1.55385 8.3826 2.51626 7.92078 3.48827 7.81897C4.44322 7.72595 5.39599 8.01757 6.13573 8.62854C7.0816 9.42078 7.35502 10.406 7.46971 11.5797C8.47626 12.1968 9.62893 12.6723 10.6777 13.2233C12.0424 11.6099 13.0401 11.1011 15.0293 10.4879L15.0303 7.13342C14.6743 6.99093 14.319 6.81749 14.0088 6.58947C13.224 6.00892 12.7083 5.13447 12.581 4.16662C12.4635 3.20377 12.7359 2.23366 13.3369 1.47229C13.9938 0.648229 14.872 0.2731 15.8906 0.138302ZM20.2764 16.8248C20.074 14.5172 18.0459 12.806 15.7373 12.9938C13.4082 13.1835 11.6787 15.2326 11.8828 17.5602C12.087 19.8886 14.1469 21.6059 16.4736 21.3873C18.7796 21.17 20.4786 19.1321 20.2764 16.8248Z" fill="#764191" />
</svg>